<svg width="75" height="29" viewBox="0 0 75 29" fill="none" xmlns="http://www.w3.org/2000/svg">
<g clip-path="url(#clip0_1_33)">
<g clip-path="url(#clip1_1_33)">
<path d="M9.36489 10.6386V13.1318H15.3244C15.1419 14.5305 14.6757 15.5541 13.9662 16.2737C13.0946 17.1453 11.7365 18.098 9.36489 18.098C5.69597 18.098 2.82773 15.1386 2.82773 11.4696C2.82773 7.80073 5.69597 4.84127 9.36489 4.84127C11.3412 4.84127 12.7906 5.62167 13.8548 6.62505L15.6081 4.87167C14.1284 3.43249 12.1419 2.33789 9.36489 2.33789C4.33786 2.33789 0.111511 6.43249 0.111511 11.4595C0.111511 16.4865 4.33786 20.5811 9.36489 20.5811C12.0811 20.5811 14.1284 19.6892 15.7298 18.0271C17.3716 16.3852 17.8885 14.0642 17.8885 12.1994C17.8885 11.6217 17.848 11.0845 17.7568 10.6386H9.36489Z" fill="white"/>
<path d="M25.3379 8.61133C22.0845 8.61133 19.4291 11.0843 19.4291 14.4998C19.4291 17.885 22.0845 20.3884 25.3379 20.3884C28.5912 20.3884 31.2466 17.8951 31.2466 14.4998C31.2466 11.0843 28.5912 8.61133 25.3379 8.61133ZM25.3379 18.0674C23.5541 18.0674 22.0135 16.5978 22.0135 14.4998C22.0135 12.3816 23.5541 10.9323 25.3379 10.9323C27.1216 10.9323 28.6622 12.3816 28.6622 14.4998C28.6622 16.5978 27.1216 18.0674 25.3379 18.0674Z" fill="white"/>
<path d="M38.5135 8.61133C35.2601 8.61133 32.6047 11.0843 32.6047 14.4998C32.6047 17.885 35.2601 20.3884 38.5135 20.3884C41.7669 20.3884 44.4223 17.8951 44.4223 14.4998C44.4223 11.0843 41.7669 8.61133 38.5135 8.61133ZM38.5135 18.0674C36.7297 18.0674 35.1892 16.5978 35.1892 14.4998C35.1892 12.3816 36.7297 10.9323 38.5135 10.9323C40.2973 10.9323 41.8378 12.3816 41.8378 14.4998C41.8378 16.5978 40.2973 18.0674 38.5135 18.0674Z" fill="white"/>
<path d="M54.304 9.9289H54.2128C53.6351 9.23971 52.5203 8.61133 51.1115 8.61133C48.1723 8.61133 45.6081 11.1755 45.6081 14.4998C45.6081 17.8039 48.1723 20.3884 51.1115 20.3884C52.5203 20.3884 53.6351 19.76 54.2128 19.0505H54.304V19.8715C54.304 22.1215 53.098 23.3275 51.1621 23.3275C49.5811 23.3275 48.598 22.1924 48.1926 21.2296L45.9426 22.162C46.5912 23.7228 48.304 25.6384 51.1621 25.6384C54.1926 25.6384 56.7567 23.8546 56.7567 19.5066V8.91538H54.304V9.9289ZM51.3344 18.0674C49.5507 18.0674 48.1926 16.5471 48.1926 14.4998C48.1926 12.4221 49.5507 10.9323 51.3344 10.9323C53.098 10.9323 54.4763 12.4525 54.4763 14.5201C54.4865 16.5775 53.098 18.0674 51.3344 18.0674Z" fill="white"/>
<path d="M58.7838 2.58105H61.3277V20.3885H58.7838V2.58105Z" fill="white"/>
<path d="M69.1824 18.0674C67.8649 18.0674 66.9324 17.4694 66.3243 16.2836L74.1993 13.0302L73.9358 12.3613C73.4493 11.0438 71.9493 8.61133 68.8987 8.61133C65.8683 8.61133 63.3446 10.9931 63.3446 14.4998C63.3446 17.8039 65.8379 20.3884 69.1824 20.3884C71.8784 20.3884 73.4392 18.7363 74.0878 17.7836L72.0811 16.4458C71.4122 17.4188 70.5 18.0674 69.1824 18.0674ZM69 10.8208C70.0439 10.8208 70.9358 11.3579 71.2297 12.1181L65.9088 14.3174C65.9088 11.8444 67.6622 10.8208 69 10.8208Z" fill="white"/>
</g>
</g>
<defs>
<clipPath id="clip0_1_33">
<rect width="75" height="29" fill="white"/>
</clipPath>
<clipPath id="clip1_1_33">
<rect width="75" height="29" fill="white"/>
</clipPath>
</defs>
</svg>
