<svg width="48" height="64" viewBox="0 0 48 64" fill="none" xmlns="http://www.w3.org/2000/svg">
<g clip-path="url(#clip0_1_64)">
<path d="M32.49 39L26.76 33.27C27.53 32.2 28 30.91 28 29.5C28 28.2144 27.6188 26.9577 26.9046 25.8888C26.1903 24.8199 25.1752 23.9868 23.9874 23.4948C22.7997 23.0028 21.4928 22.8741 20.2319 23.1249C18.971 23.3757 17.8128 23.9948 16.9038 24.9038C15.9948 25.8128 15.3757 26.971 15.1249 28.2319C14.8741 29.4928 15.0028 30.7997 15.4948 31.9874C15.9868 33.1752 16.8199 34.1903 17.8888 34.9046C18.9577 35.6188 20.2144 36 21.5 36C22.91 36 24.2 35.53 25.27 34.76L31 40.49L32.49 39ZM17 29.5C17 27.01 19.01 25 21.5 25C23.99 25 26 27.01 26 29.5C26 31.99 23.99 34 21.5 34C19.01 34 17 31.99 17 29.5Z" fill="#5F6368"/>
</g>
<defs>
<clipPath id="clip0_1_64">
<rect width="24" height="24" fill="white" transform="translate(12 20)"/>
</clipPath>
</defs>
</svg>
