<svg width="1203" height="48" viewBox="0 0 1203 48" fill="none" xmlns="http://www.w3.org/2000/svg">
<rect width="48" height="48" rx="24" fill="#060606"/>
<g clip-path="url(#clip0_1_1067)">
<path d="M19.5 33.8004C28.6 33.8004 33.5 26.3004 33.5 19.8004C33.5 19.6004 33.5 19.4004 33.5 19.2004C34.5 18.5004 35.3 17.6004 36 16.7004C35.1 17.1004 34.2 17.4004 33.2 17.5004C34.2 16.9004 35 15.9004 35.4 14.8004C34.4 15.4004 33.4 15.8004 32.3 16.0004C31.4 15.0004 30.1 14.4004 28.7 14.4004C26 14.4004 23.8 16.6004 23.8 19.3004C23.8 19.7004 23.8 20.1004 23.9 20.4004C19.7 20.1004 16.1 18.1004 13.7 15.1004C13.2 15.9004 13 16.7004 13 17.6004C13 19.3004 13.9 20.8004 15.2 21.7004C14.4 21.7004 13.6 21.5004 13 21.1004C13 21.1004 13 21.1004 13 21.2004C13 23.6004 14.7 25.6004 17 26.0004C16.6 26.1004 16.2 26.2004 15.7 26.2004C15.4 26.2004 15.1 26.2004 14.8 26.1004C15.4 28.1004 17.2 29.5004 19.4 29.5004C17.7 30.8004 15.6 31.6004 13.3 31.6004C12.9 31.6004 12.5 31.6004 12.1 31.5004C14.2 32.9004 16.8 33.8004 19.5 33.8004Z" fill="#888D93"/>
</g>
<rect x="56" width="48" height="48" rx="24" fill="#060606"/>
<g clip-path="url(#clip1_1_1067)">
<g clip-path="url(#clip2_1_1067)">
<path d="M80 12C83.3 12 83.7 12 85 12C86.3 12.1 87.1 12.3 87.9 12.6C88.7 12.9 89.3 13.3 90 14C90.7 14.7 91.1 15.4 91.3 16.2C91.6 17 91.8 17.8 91.9 19.1C92 20.3 92 20.7 92 24C92 27.3 92 27.7 91.9 28.9C91.8 30.2 91.6 31 91.3 31.8C91 32.6 90.6 33.2 89.9 33.9C89.3 34.6 88.6 35 87.8 35.3C87 35.6 86.2 35.8 84.9 35.9C83.7 36 83.3 36 80 36C76.7 36 76.3 36 75 36C73.7 35.9 72.9 35.7 72.1 35.4C71.3 35.1 70.7 34.7 70 34C69.3 33.3 68.9 32.6 68.7 31.8C68.4 31 68.2 30.2 68.1 28.9C68 27.7 68 27.3 68 24C68 20.7 68 20.3 68.1 19.1C68.1 17.8 68.3 16.9 68.6 16.1C68.9 15.4 69.3 14.7 70 14C70.7 13.3 71.4 12.9 72.1 12.6C72.9 12.3 73.8 12.1 75.1 12.1C76.3 12 76.7 12 80 12ZM80 14.2C76.8 14.2 76.4 14.2 75.2 14.2C74 14.3 73.3 14.5 72.9 14.6C72.4 14.9 72 15.1 71.5 15.5C71.1 15.9 70.8 16.3 70.6 16.9C70.5 17.3 70.3 18 70.3 19.2C70.2 20.4 70.2 20.8 70.2 24C70.2 27.2 70.2 27.5 70.3 28.8C70.3 29.9 70.5 30.6 70.7 31C70.9 31.6 71.2 32 71.6 32.4C72 32.8 72.4 33.1 73 33.3C73.4 33.5 74 33.6 75.2 33.7C76.4 33.8 76.8 33.8 80 33.8C83.2 33.8 83.5 33.8 84.8 33.7C85.9 33.7 86.6 33.5 87 33.3C87.6 33.1 88 32.8 88.4 32.4C88.8 32 89.1 31.6 89.3 31C89.5 30.6 89.6 30 89.7 28.8C89.8 27.6 89.8 27.2 89.8 24C89.8 20.8 89.8 20.5 89.7 19.2C89.7 18.1 89.5 17.4 89.3 17C89.1 16.4 88.8 16 88.4 15.6C88 15.2 87.6 14.9 87 14.7C86.6 14.5 86 14.4 84.8 14.3C83.6 14.2 83.2 14.2 80 14.2ZM80 17.8C83.4 17.8 86.2 20.6 86.2 24C86.2 27.4 83.4 30.2 80 30.2C76.6 30.2 73.8 27.4 73.8 24C73.8 20.6 76.6 17.8 80 17.8ZM80 28C82.2 28 84 26.2 84 24C84 21.8 82.2 20 80 20C77.8 20 76 21.8 76 24C76 26.2 77.8 28 80 28ZM86.4 19C85.6268 19 85 18.3732 85 17.6C85 16.8268 85.6268 16.2 86.4 16.2C87.1732 16.2 87.8 16.8268 87.8 17.6C87.8 18.3732 87.1732 19 86.4 19Z" fill="#888D93"/>
</g>
</g>
<rect x="112" width="48" height="48" rx="24" fill="#060606"/>
<g clip-path="url(#clip3_1_1067)">
<path d="M144.5 14H127.5C126.7 14 126 14.7 126 15.5V32.5C126 33.3 126.7 34 127.5 34H144.5C145.3 34 146 33.3 146 32.5V15.5C146 14.7 145.3 14 144.5 14ZM132 31H129V21.5H132V31ZM130.5 20.2C129.5 20.2 128.8 19.5 128.8 18.5C128.8 17.5 129.6 16.8 130.5 16.8C131.4 16.8 132.2 17.5 132.2 18.5C132.2 19.5 131.4 20.2 130.5 20.2ZM143 31H140V25.8C140 24.3 139.3 23.8 138.5 23.8C137.6 23.8 136.7 24.5 136.7 25.9V31H133.7V21.5H136.6V22.8C136.9 22.2 137.9 21.2 139.5 21.2C141.2 21.2 143 22.2 143 25.1V31Z" fill="#888D93"/>
</g>
<rect x="168" width="48" height="48" rx="24" fill="#060606"/>
<g clip-path="url(#clip4_1_1067)">
<path d="M203.74 19.1002C203.74 19.1002 203.51 17.4502 202.79 16.7302C201.88 15.7702 200.86 15.7702 200.39 15.7102C197.04 15.4702 192 15.5002 192 15.5002C192 15.5002 186.98 15.4702 183.63 15.7102C183.17 15.7702 182.15 15.7702 181.24 16.7302C180.52 17.4502 180.28 19.1002 180.28 19.1002C180.28 19.1002 180.04 21.0502 180 22.9802V25.0002C180.04 26.9402 180.28 28.8702 180.28 28.8702C180.28 28.8702 180.52 30.5202 181.24 31.2502C182.15 32.2002 183.34 32.1702 183.88 32.2702C185.76 32.4502 191.79 32.4902 192 32.4902C192 32.4902 197.05 32.5002 200.4 32.2602C200.86 32.2002 201.88 32.2002 202.79 31.2402C203.51 30.5202 203.75 28.8702 203.75 28.8702C203.75 28.8702 203.99 26.9302 204 25.0002V22.9802C203.98 21.0502 203.74 19.1002 203.74 19.1002ZM189.57 27.5002V20.4902L196 24.1302L189.57 27.5002Z" fill="#888D93"/>
</g>
<rect x="224" width="48" height="48" rx="24" fill="#060606"/>
<g clip-path="url(#clip5_1_1067)">
<path fill-rule="evenodd" clip-rule="evenodd" d="M247.964 12.2451C241.348 12.2451 236 17.6329 236 24.2983C236 29.6263 239.427 34.1363 244.181 35.7325C244.775 35.8525 244.993 35.4732 244.993 35.1541C244.993 34.8747 244.973 33.9169 244.973 32.9189C241.645 33.6374 240.952 31.4821 240.952 31.4821C240.417 30.0852 239.625 29.7262 239.625 29.7262C238.535 28.9878 239.704 28.9878 239.704 28.9878C240.912 29.0676 241.546 30.225 241.546 30.225C242.616 32.0608 244.339 31.5421 245.033 31.2227C245.132 30.4445 245.449 29.9057 245.785 29.6064C243.131 29.327 240.338 28.2894 240.338 23.6596C240.338 22.3425 240.813 21.265 241.566 20.4269C241.447 20.1276 241.031 18.8902 241.685 17.2339C241.685 17.2339 242.695 16.9146 244.973 18.4712C245.948 18.2073 246.954 18.0731 247.964 18.072C248.974 18.072 250.004 18.2118 250.955 18.4712C253.233 16.9146 254.243 17.2339 254.243 17.2339C254.897 18.8902 254.481 20.1276 254.362 20.4269C255.135 21.265 255.59 22.3425 255.59 23.6596C255.59 28.2894 252.798 29.3069 250.123 29.6064C250.559 29.9855 250.935 30.7038 250.935 31.8414C250.935 33.4577 250.916 34.7549 250.916 35.1539C250.916 35.4732 251.134 35.8525 251.728 35.7328C256.482 34.1361 259.909 29.6263 259.909 24.2983C259.928 17.6329 254.56 12.2451 247.964 12.2451Z" fill="#888D93"/>
</g>
<defs>
<clipPath id="clip0_1_1067">
<rect width="24" height="24" fill="white" transform="translate(12 12)"/>
</clipPath>
<clipPath id="clip1_1_1067">
<rect width="24" height="24" fill="white" transform="translate(68 12)"/>
</clipPath>
<clipPath id="clip2_1_1067">
<rect width="24" height="24" fill="white" transform="translate(68 12)"/>
</clipPath>
<clipPath id="clip3_1_1067">
<rect width="24" height="24" fill="white" transform="translate(124 12)"/>
</clipPath>
<clipPath id="clip4_1_1067">
<rect width="24" height="24" fill="white" transform="translate(180 12)"/>
</clipPath>
<clipPath id="clip5_1_1067">
<rect width="24" height="24" fill="white" transform="translate(236 12)"/>
</clipPath>
</defs>
</svg>
