<svg width="123" height="56" viewBox="0 0 123 56" fill="none" xmlns="http://www.w3.org/2000/svg">
<g clip-path="url(#clip0_1_1097)">
<g clip-path="url(#clip1_1_1097)">
<path d="M9.73999 8.19V10.65H15.62C15.44 12.03 14.98 13.04 14.28 13.75C13.42 14.61 12.08 15.55 9.73999 15.55C6.11999 15.55 3.28999 12.63 3.28999 9.01C3.28999 5.39 6.11999 2.47 9.73999 2.47C11.69 2.47 13.12 3.24 14.17 4.23L15.9 2.5C14.44 1.08 12.48 0 9.73999 0C4.77999 0 0.609985 4.04 0.609985 9C0.609985 13.96 4.77999 18 9.73999 18C12.42 18 14.44 17.12 16.02 15.48C17.64 13.86 18.15 11.57 18.15 9.73C18.15 9.16 18.11 8.63 18.02 8.19H9.73999ZM25.5 6.19C22.29 6.19 19.67 8.63 19.67 12C19.67 15.34 22.29 17.81 25.5 17.81C28.71 17.81 31.33 15.35 31.33 12C31.33 8.63 28.71 6.19 25.5 6.19ZM25.5 15.52C23.74 15.52 22.22 14.07 22.22 12C22.22 9.91 23.74 8.48 25.5 8.48C27.26 8.48 28.78 9.91 28.78 12C28.78 14.07 27.26 15.52 25.5 15.52ZM54.08 7.49H53.99C53.42 6.81 52.32 6.19 50.93 6.19C48.03 6.19 45.5 8.72 45.5 12C45.5 15.26 48.03 17.81 50.93 17.81C52.32 17.81 53.42 17.19 53.99 16.49H54.08V17.3C54.08 19.52 52.89 20.71 50.98 20.71C49.42 20.71 48.45 19.59 48.05 18.64L45.83 19.56C46.47 21.1 48.16 22.99 50.98 22.99C53.97 22.99 56.5 21.23 56.5 16.94V6.49H54.08V7.49ZM51.15 15.52C49.39 15.52 48.05 14.02 48.05 12C48.05 9.95 49.39 8.48 51.15 8.48C52.89 8.48 54.25 9.98 54.25 12.02C54.26 14.05 52.89 15.52 51.15 15.52ZM38.5 6.19C35.29 6.19 32.67 8.63 32.67 12C32.67 15.34 35.29 17.81 38.5 17.81C41.71 17.81 44.33 15.35 44.33 12C44.33 8.63 41.71 6.19 38.5 6.19ZM38.5 15.52C36.74 15.52 35.22 14.07 35.22 12C35.22 9.91 36.74 8.48 38.5 8.48C40.26 8.48 41.78 9.91 41.78 12C41.78 14.07 40.26 15.52 38.5 15.52ZM58.5 0.24H61.01V17.81H58.5V0.24ZM68.76 15.52C67.46 15.52 66.54 14.93 65.94 13.76L73.71 10.55L73.45 9.89C72.97 8.59 71.49 6.19 68.48 6.19C65.49 6.19 63 8.54 63 12C63 15.26 65.46 17.81 68.76 17.81C71.42 17.81 72.96 16.18 73.6 15.24L71.62 13.92C70.96 14.88 70.06 15.52 68.76 15.52ZM68.58 8.37C69.61 8.37 70.49 8.9 70.78 9.65L65.53 11.82C65.53 9.38 67.26 8.37 68.58 8.37Z" fill="#5F6368"/>
</g>
</g>
<defs>
<clipPath id="clip0_1_1097">
<rect width="75" height="24" fill="white"/>
</clipPath>
<clipPath id="clip1_1_1097">
<rect width="75" height="24" fill="white"/>
</clipPath>
</defs>
</svg>
