<svg width="192" height="200" viewBox="0 0 192 200" fill="none" xmlns="http://www.w3.org/2000/svg">
<mask id="mask0_1_1030" style="mask-type:alpha" maskUnits="userSpaceOnUse" x="0" y="0" width="192" height="200">
<g clip-path="url(#clip0_1_1030)">
<path fill-rule="evenodd" clip-rule="evenodd" d="M98.718 47.6278C97.854 44.6923 97.196 41.6903 96.7439 38.6218V29.7715C113.944 29.9609 129.571 36.7068 141.243 47.6278H98.718ZM93.1938 47.6278C94.1011 44.6415 94.7883 41.5864 95.2555 38.4626V29.7715C78.0551 29.9609 62.4284 36.7068 50.7569 47.6278H93.1938ZM49.7326 49.1162H92.7215C92.0975 51.0021 91.3843 52.8601 90.5821 54.6902C87.1422 62.7906 82.4477 69.8546 76.4987 75.8823L49.7326 49.1162ZM47.6276 47.6278H23.8142V49.1162H47.1321C35.6146 61.1179 28.4756 77.3537 28.2828 95.2558H0V96.7441H28.2828C28.4755 114.646 35.6145 130.882 47.132 142.884H23.8142V144.372H47.6276V168.186H49.116V144.868C61.1178 156.385 77.3535 163.524 95.2555 163.717V192H96.7439V163.717C114.646 163.524 130.882 156.385 142.884 144.868V168.186H144.372V144.372H168.186V142.884H144.868C156.385 130.882 163.524 114.646 163.717 96.7442H192V95.2558H163.717C163.524 77.3538 156.385 61.118 144.867 49.1162H168.186V47.6278H144.372V23.814H142.884V47.1323C130.882 35.6148 114.646 28.4758 96.7439 28.2831V0H95.2555V28.2831C77.3535 28.4758 61.1177 35.6148 49.116 47.1323V23.814H47.6276V47.6278ZM96.7439 162.228C113.944 162.039 129.571 155.293 141.243 144.372H98.718C97.854 147.308 97.196 150.31 96.7439 153.378V162.228ZM95.2555 153.537C94.7883 150.414 94.101 147.358 93.1938 144.372H50.7568C62.4283 155.293 78.0551 162.039 95.2555 162.228V153.537ZM29.7713 95.2558H38.6218C41.6902 94.8037 44.6921 94.1457 47.6276 93.2817V50.7571C36.7066 62.4286 29.9606 78.0553 29.7713 95.2558ZM38.4621 96.7441H29.7713C29.9606 113.945 36.7066 129.571 47.6276 141.243V98.8059C44.6412 97.8986 41.586 97.2114 38.4621 96.7441ZM162.228 95.2558C162.039 78.0554 155.293 62.4286 144.372 50.7571V93.2817C147.308 94.1457 150.31 94.8037 153.378 95.2558H162.228ZM153.537 96.7442C150.413 97.2114 147.358 97.8987 144.372 98.8059V141.243C155.293 129.571 162.039 113.945 162.228 96.7442H153.537ZM142.884 142.267V99.2782C140.998 99.9023 139.14 100.615 137.31 101.418C129.209 104.858 122.145 109.552 116.118 115.501L142.884 142.267ZM142.884 92.8242V49.2168L142.783 49.1162H99.1755C99.78 51.0021 100.471 52.8601 101.248 54.6902C104.86 62.9296 109.713 70.0967 115.808 76.1916C121.903 82.2865 129.07 87.1398 137.31 90.7516C139.14 91.5288 140.998 92.2197 142.884 92.8242ZM49.116 142.783V99.2782C51.0018 99.9023 52.8598 100.615 54.69 101.418C62.9293 104.917 70.0965 109.713 76.1914 115.808C82.2862 121.903 87.0831 129.07 90.5821 137.31C91.3843 139.14 92.0974 140.998 92.7215 142.884H49.2165L49.116 142.783ZM49.116 92.8242V50.6045L75.4415 76.93C69.511 82.6797 62.5938 87.2869 54.69 90.7516C52.8598 91.5288 51.0018 92.2197 49.116 92.8242ZM99.1755 142.884H141.395L115.07 116.558C109.32 122.489 104.713 129.406 101.248 137.31C100.471 139.14 99.7801 140.998 99.1755 142.884ZM80.4011 80.4014C73.8284 86.9741 66.1293 92.199 57.356 96.0827C66.1303 99.8564 73.8297 105.027 80.4011 111.599C86.9725 118.17 92.1433 125.869 95.917 134.644C99.8008 125.87 105.026 118.171 111.598 111.599C118.17 105.027 125.869 99.8564 134.644 96.0827C125.87 92.199 118.171 86.9741 111.598 80.4014C105.026 73.8286 99.8008 66.1296 95.917 57.3563C92.1433 66.1305 86.9725 73.8299 80.4011 80.4014Z" fill="black"/>
</g>
</mask>
<g mask="url(#mask0_1_1030)">
<rect width="192" height="199.09" fill="url(#paint0_linear_1_1030)"/>
</g>
<defs>
<linearGradient id="paint0_linear_1_1030" x1="-1.7725" y1="197.317" x2="193.772" y2="1.7725" gradientUnits="userSpaceOnUse">
<stop offset="0.2442" stop-color="#446EFF"/>
<stop offset="0.4296" stop-color="#2E96FF"/>
<stop offset="0.6651" stop-color="#B1C5FF"/>
</linearGradient>
<clipPath id="clip0_1_1030">
<rect width="192" height="199.09" fill="white"/>
</clipPath>
</defs>
</svg>
