<svg width="487" height="125" viewBox="0 0 487 125" fill="none" xmlns="http://www.w3.org/2000/svg">
<mask id="mask0_1_14" style="mask-type:alpha" maskUnits="userSpaceOnUse" x="9" y="3" width="470" height="120">
<path d="M124.86 67.4905C124.86 83.493 120.112 96.2417 110.617 105.737C99.949 117.045 85.9201 122.699 68.5307 122.699C51.8881 122.699 37.8059 116.938 26.2841 105.416C14.7623 93.8947 9.00141 79.7058 9.00141 62.8498C9.00141 45.9939 14.7623 31.805 26.2841 20.2832C37.8059 8.76137 51.8881 3.00047 68.5307 3.00047C76.9587 3.00047 84.9066 4.49404 92.3744 7.48117C99.8423 10.4683 105.977 14.6823 110.777 20.1232L100.216 30.6848C96.6951 26.4175 92.1077 23.1103 86.4535 20.7632C80.906 18.3095 74.9317 17.0827 68.5307 17.0827C56.0488 17.0827 45.4871 21.4033 36.8458 30.0447C28.3111 38.7927 24.0438 49.7278 24.0438 62.8498C24.0438 75.9719 28.3111 86.9069 36.8458 95.655C45.4871 104.296 56.0488 108.617 68.5307 108.617C79.9458 108.617 89.4406 105.416 97.0152 99.0155C104.59 92.6145 108.964 83.8131 110.137 72.6114H68.5307V58.8492H124.059C124.593 61.8363 124.86 64.7168 124.86 67.4905Z" fill="#D9D9D9"/>
<path d="M169.81 122.699C158.288 122.699 148.794 118.752 141.326 110.857C133.858 102.963 130.124 92.9879 130.124 80.9327C130.124 68.9841 133.751 59.0626 141.006 51.168C148.26 43.1667 157.542 39.1661 168.85 39.1661C180.479 39.1661 189.707 42.9534 196.534 50.5279C203.469 57.9957 206.936 68.504 206.936 82.0528L206.776 83.6531H145.166C145.38 91.3343 147.94 97.5219 152.848 102.216C157.755 106.91 163.623 109.257 170.45 109.257C179.839 109.257 187.2 104.563 192.534 95.1749L205.656 101.576C202.135 108.19 197.228 113.364 190.934 117.098C184.746 120.832 177.705 122.699 169.81 122.699ZM146.287 71.4912H191.254C190.827 66.0503 188.587 61.5696 184.533 58.0491C180.585 54.4218 175.251 52.6082 168.53 52.6082C162.983 52.6082 158.182 54.3152 154.128 57.729C150.181 61.1429 147.567 65.7303 146.287 71.4912Z" fill="#D9D9D9"/>
<path d="M230.321 120.139H215.599V41.7265H229.681V52.6082H230.321C232.561 48.7676 235.975 45.5671 240.563 43.0067C245.257 40.4463 249.897 39.1661 254.485 39.1661C260.246 39.1661 265.313 40.4997 269.687 43.1667C274.061 45.8338 277.262 49.5144 279.289 54.2085C285.796 44.1802 294.811 39.1661 306.333 39.1661C315.401 39.1661 322.389 41.9399 327.296 47.4874C332.204 53.035 334.657 60.9295 334.657 71.1711V120.139H319.935V73.4115C319.935 66.0503 318.601 60.7695 315.934 57.569C313.267 54.2618 308.787 52.6082 302.492 52.6082C296.838 52.6082 292.091 55.0086 288.25 59.8094C284.409 64.6101 282.489 70.2643 282.489 76.772V120.139H267.767V73.4115C267.767 66.0503 266.433 60.7695 263.766 57.569C261.099 54.2618 256.618 52.6082 250.324 52.6082C244.67 52.6082 239.922 55.0086 236.082 59.8094C232.241 64.6101 230.321 70.2643 230.321 76.772V120.139Z" fill="#D9D9D9"/>
<path d="M366.112 14.6823C366.112 17.5627 365.099 20.0165 363.072 22.0434C361.045 24.0704 358.591 25.0839 355.711 25.0839C352.83 25.0839 350.376 24.0704 348.349 22.0434C346.322 20.0165 345.309 17.5627 345.309 14.6823C345.309 11.8018 346.322 9.34813 348.349 7.32115C350.376 5.29416 352.83 4.28067 355.711 4.28067C358.591 4.28067 361.045 5.29416 363.072 7.32115C365.099 9.34813 366.112 11.8018 366.112 14.6823ZM363.072 41.7265V120.139H348.349V41.7265H363.072Z" fill="#D9D9D9"/>
<path d="M377.43 41.7265H391.512V52.6082H392.153C394.393 48.7676 397.807 45.5671 402.394 43.0067C407.088 40.4463 411.942 39.1661 416.956 39.1661C426.558 39.1661 433.919 41.9399 439.04 47.4874C444.267 52.9283 446.881 60.7162 446.881 70.8511V120.139H432.159V71.8112C431.839 59.0092 425.384 52.6082 412.796 52.6082C406.928 52.6082 402.021 55.0086 398.073 59.8094C394.126 64.5034 392.153 70.1576 392.153 76.772V120.139H377.43V41.7265Z" fill="#D9D9D9"/>
<path d="M478.405 14.6823C478.405 17.5627 477.391 20.0165 475.364 22.0434C473.337 24.0704 470.884 25.0839 468.003 25.0839C465.123 25.0839 462.669 24.0704 460.642 22.0434C458.615 20.0165 457.601 17.5627 457.601 14.6823C457.601 11.8018 458.615 9.34813 460.642 7.32115C462.669 5.29416 465.123 4.28067 468.003 4.28067C470.884 4.28067 473.337 5.29416 475.364 7.32115C477.391 9.34813 478.405 11.8018 478.405 14.6823ZM475.364 41.7265V120.139H460.642V41.7265H475.364Z" fill="#D9D9D9"/>
</mask>
<g mask="url(#mask0_1_14)">
<path d="M486.726 0H0.0204805V125H486.726V0Z" fill="url(#paint0_linear_1_14)"/>
</g>
<defs>
<linearGradient id="paint0_linear_1_14" x1="0.0204805" y1="0" x2="486.726" y2="0" gradientUnits="userSpaceOnUse">
<stop stop-color="#FCDCB8"/>
<stop offset="0.5" stop-color="#FFDDB7"/>
<stop offset="1" stop-color="#5893E8"/>
</linearGradient>
</defs>
</svg>
